<?xml version="1.0" encoding="UTF-8" standalone="no"?>
<!-- Created with Inkscape (http://www.inkscape.org/) -->

<svg
   width="210mm"
   height="297mm"
   viewBox="0 0 210 297"
   version="1.1"
   id="svg1"
   xml:space="preserve"
   sodipodi:docname="Borde Exterior.svg"
   inkscape:version="1.3.2 (091e20e, 2023-11-25, custom)"
   xmlns:inkscape="http://www.inkscape.org/namespaces/inkscape"
   xmlns:sodipodi="http://sodipodi.sourceforge.net/DTD/sodipodi-0.dtd"
   xmlns="http://www.w3.org/2000/svg"
   xmlns:svg="http://www.w3.org/2000/svg"><sodipodi:namedview
     id="namedview1"
     pagecolor="#ffffff"
     bordercolor="#000000"
     borderopacity="0.25"
     inkscape:showpageshadow="2"
     inkscape:pageopacity="0.0"
     inkscape:pagecheckerboard="0"
     inkscape:deskcolor="#d1d1d1"
     inkscape:document-units="mm"
     inkscape:zoom="0.35355339"
     inkscape:cx="562.857"
     inkscape:cy="490.73211"
     inkscape:window-width="1366"
     inkscape:window-height="705"
     inkscape:window-x="-8"
     inkscape:window-y="-8"
     inkscape:window-maximized="1"
     inkscape:current-layer="layer1"
     showgrid="false" /><defs
     id="defs1" /><g
     inkscape:label="Capa 1"
     inkscape:groupmode="layer"
     id="layer1"><path
       style="fill:#000000;stroke-width:0.624197"
       d="M 101.93951,5.845638 C 94.653722,5.8518957 79.543097,6.7996059 78.662899,7.3054972 78.483039,7.408869 77.366168,7.5871411 76.18088,7.7013387 72.095088,8.0949788 70.054678,8.3742624 69.312048,8.641333 68.90239,8.7886557 68.25633,8.9090169 67.87596,8.9090169 c -0.380378,0 -1.057411,0.1037602 -1.504301,0.2304769 -1.095348,0.310583 -3.170497,0.7447894 -4.781103,1.0004562 -1.854296,0.294349 -4.020176,0.82652 -4.255554,1.045414 -0.10904,0.101403 -0.490072,0.183968 -0.84646,0.183968 -0.64236,0 -2.940308,0.612473 -3.824056,1.019059 -0.25268,0.116247 -0.669402,0.210993 -0.926042,0.210323 -0.25663,-6.69e-4 -1.002425,0.158953 -1.657263,0.355017 -0.65485,0.196062 -1.904997,0.543028 -2.778125,0.771013 -0.873118,0.227984 -1.700926,0.510975 -1.839164,0.628902 -0.13825,0.11793 -0.518285,0.214457 -0.844393,0.214457 -0.32611,0 -0.666127,0.110649 -0.756027,0.24598 -0.08994,0.135304 -0.365262,0.246697 -0.611332,0.24753 -0.246068,8.34e-4 -0.788286,0.167329 -1.205094,0.369486 -0.41682,0.202157 -0.958751,0.36742 -1.204061,0.36742 -0.2453,0 -0.558865,0.09455 -0.697115,0.210323 -0.13824,0.115767 -0.905998,0.396523 -1.706356,0.623734 -1.474686,0.418639 -2.713012,0.854227 -4.630208,1.629358 -0.58208,0.235341 -1.713184,0.681595 -2.513542,0.991154 -0.800368,0.309564 -1.568634,0.655227 -1.706872,0.768429 -0.13825,0.113223 -0.402878,0.205672 -0.588078,0.205672 -0.34222,0 -2.321614,0.784532 -4.716508,1.869137 -0.727598,0.329515 -1.457527,0.597412 -1.621607,0.595312 -0.164078,-0.0021 -0.446192,0.16236 -0.627352,0.365353 -0.181158,0.202987 -0.542985,0.368969 -0.804085,0.368969 -0.26109,0 -0.514773,0.08299 -0.563273,0.184485 -0.04851,0.101496 -1.516604,0.832531 -3.26285,1.624707 -4.78919,2.172599 -4.894792,2.22542 -4.894792,2.429826 0,0.104558 -0.175787,0.190169 -0.390157,0.190169 -0.214358,0 -1.285872,0.513926 -2.3812496,1.142566 l -1.9916097,1.143083 0.066146,318.292714 0.066146,318.2922 95.2970276,0.062 c 90.59658,0.0588 95.30253,0.0407 95.41743,-0.36897 v -5.1e-4 c 0.20466,-0.72963 0.15822,-634.227655 -0.0465,-634.711131 -0.17002,-0.401509 -2.1126,-1.583768 -4.00389,-2.436544 -0.3638,-0.16404 -0.72095,-0.356308 -0.79375,-0.426848 -0.0728,-0.07054 -0.66807,-0.379158 -1.32292,-0.686263 -0.65484,-0.307099 -1.95244,-0.943994 -2.88302,-1.4149 -0.93058,-0.470906 -1.84322,-0.856279 -2.0283,-0.856279 -0.18509,0 -0.37628,-0.08299 -0.42478,-0.184485 -0.0485,-0.101496 -0.86176,-0.549634 -1.80765,-0.996321 -0.94586,-0.446688 -1.89838,-0.915964 -2.11666,-1.042314 -0.35046,-0.202874 -1.86928,-0.842295 -4.36563,-1.838131 -0.43656,-0.174151 -1.44859,-0.596536 -2.24896,-0.938444 -1.71729,-0.733624 -3.2919,-1.371627 -5.29166,-2.145088 -0.80037,-0.309562 -1.56863,-0.655744 -1.70688,-0.768946 -0.13822,-0.1132 -0.4613,-0.205672 -0.7183,-0.205672 -0.257,0 -0.918,-0.181326 -1.46864,-0.403076 -1.45133,-0.584463 -1.89459,-0.737096 -3.51452,-1.210262 -0.80036,-0.233782 -1.81238,-0.563843 -2.24895,-0.733289 -2.30654,-0.895252 -3.88876,-1.395043 -4.83123,-1.525488 -0.4743,-0.06565 -0.92769,-0.217588 -1.00769,-0.337964 -0.08,-0.120375 -0.44396,-0.219108 -0.80874,-0.219108 -0.36478,0 -0.92342,-0.129849 -1.24127,-0.288871 -0.31786,-0.15902 -0.99446,-0.374853 -1.50378,-0.479557 -0.50933,-0.104693 -1.58089,-0.371728 -2.38125,-0.593246 -3.40543,-0.942512 -6.003,-1.553843 -7.80521,-1.837614 -1.60072,-0.2520412 -3.67827,-0.6860531 -4.78162,-0.9989052 -0.44689,-0.1267176 -1.10174,-0.2320342 -1.45521,-0.2340942 -0.35347,-0.00204 -1.11859,-0.1636202 -1.70067,-0.3586345 C 133.5043,8.3517513 132.46404,8.1873628 131.7749,8.1814128 131.08576,8.175473 130.0142,8.0649613 129.39365,7.9354329 124.1862,6.8484809 110.9124,5.837938 101.93951,5.845638 Z"
       id="rect6" /></g></svg>
