<?xml version="1.0" encoding="UTF-8" standalone="no"?>
<!-- Created with Inkscape (http://www.inkscape.org/) -->

<svg
   width="210mm"
   height="297mm"
   viewBox="0 0 210 297"
   version="1.1"
   id="svg1"
   xml:space="preserve"
   sodipodi:docname="Otros.svg"
   inkscape:version="1.3.2 (091e20e, 2023-11-25, custom)"
   xmlns:inkscape="http://www.inkscape.org/namespaces/inkscape"
   xmlns:sodipodi="http://sodipodi.sourceforge.net/DTD/sodipodi-0.dtd"
   xmlns="http://www.w3.org/2000/svg"
   xmlns:svg="http://www.w3.org/2000/svg"><sodipodi:namedview
     id="namedview1"
     pagecolor="#ffffff"
     bordercolor="#000000"
     borderopacity="0.25"
     inkscape:showpageshadow="2"
     inkscape:pageopacity="0.0"
     inkscape:pagecheckerboard="0"
     inkscape:deskcolor="#d1d1d1"
     inkscape:document-units="mm"
     inkscape:zoom="0.5"
     inkscape:cx="440"
     inkscape:cy="369"
     inkscape:window-width="1366"
     inkscape:window-height="705"
     inkscape:window-x="-8"
     inkscape:window-y="-8"
     inkscape:window-maximized="1"
     inkscape:current-layer="layer1"
     showgrid="false" /><defs
     id="defs1" /><g
     inkscape:label="Capa 1"
     inkscape:groupmode="layer"
     id="layer1"><path
       id="path8"
       style="fill:#000000;stroke-width:7.06025"
       d="m 81.928545,15.29485 c -7.690935,0 -13.882874,5.19e-4 -13.882874,0.0015 v 10e-4 h -0.953947 c -0.001,0 -0.0015,0.853927 -0.0015,1.914611 v 5.851323 c 0,1.060684 5.2e-4,1.914612 0.0015,1.914612 h 0.95188 0.0021 c 0.0018,10e-4 6.195784,0.0021 13.891659,0.0021 h 42.462017 c 7.69702,0 13.89321,-0.001 13.89321,-0.0021 v -5.17e-4 h 0.88935 c 0.001,0 0.002,-0.853927 0.002,-1.914612 v -5.851322 c 0,-1.060685 -0.001,-1.914612 -0.002,-1.914612 h -0.94258 v -5.17e-4 c 0,-10e-4 -6.19194,-0.0015 -13.88287,-0.0015 z m -13.88184,0.956014 c 9.22e-4,0.001 6.191478,0.0015 13.88184,0.0015 h 42.427915 c 7.68406,0 13.85942,-5.21e-4 13.87047,-0.0015 -3.4e-4,0.346342 -0.001,0.428461 -0.001,0.960665 v 5.851322 c 0,0.532489 7e-4,0.614797 0.001,0.961182 -0.0582,-10e-4 -6.16692,-0.0021 -13.82758,-0.0021 H 81.93733 c -7.695302,0 -13.88786,10e-4 -13.890625,0.0021 3.38e-4,-0.346343 10e-4,-0.428462 10e-4,-0.960665 v -5.851323 c 0,-0.532489 -6.94e-4,-0.614797 -10e-4,-0.961181 z" /><rect
       style="fill:#000000;stroke-width:2.43094"
       id="rect9"
       width="118.55681"
       height="2.249851"
       x="69.265015"
       y="28.99781"
       rx="0.0015640042"
       ry="0.13905212" /><rect
       style="fill:#000000;stroke-width:1.93765"
       id="rect10"
       width="75.322372"
       height="2.249851"
       x="118.14476"
       y="104.72738"
       rx="0.0009936546"
       ry="0.13905212" /><rect
       style="fill:#000000;stroke-width:1.92506"
       id="rect11"
       width="74.346718"
       height="2.249851"
       x="12.711486"
       y="104.65287"
       rx="0.00098078384"
       ry="0.13905212" /><rect
       style="fill:#000000;stroke-width:0.699558"
       id="rect12"
       width="9.8179522"
       height="2.249851"
       x="183.7177"
       y="86.700569"
       rx="0.00012951867"
       ry="0.13905212" /><rect
       style="fill:#000000;stroke-width:0.699558"
       id="rect13"
       width="9.8179522"
       height="2.249851"
       x="183.67551"
       y="41.258926"
       rx="0.00012951867"
       ry="0.13905212" /><text
       xml:space="preserve"
       style="font-size:6.1936px;fill:#000000;stroke-width:6.71058"
       x="85.574379"
       y="23.244089"
       id="text13"
       transform="scale(1.0271362,0.97358072)"><tspan
         sodipodi:role="line"
         id="tspan13"
         style="fill:#000000;stroke-width:6.71056"
         x="85.574379"
         y="23.244089">MONITOR</tspan></text></g></svg>
